<svg width="20" height="20" viewBox="0 0 20 20" fill="none" xmlns="http://www.w3.org/2000/svg">
<g clip-path="url(#clip0)">
<path d="M20 3.20807C19.2563 3.59049 18.4637 3.84397 17.6375 3.96704C18.4875 3.37217 19.1363 2.43737 19.4412 1.31063C18.6488 1.86448 17.7738 2.25569 16.8412 2.474C16.0887 1.53481 15.0162 0.953125 13.8462 0.953125C11.5763 0.953125 9.74875 3.11283 9.74875 5.76045C9.74875 6.1414 9.77625 6.5077 9.84375 6.85642C6.435 6.66155 3.41875 4.74653 1.3925 1.82932C1.03875 2.54873 0.83125 3.37217 0.83125 4.25862C0.83125 5.92309 1.5625 7.39855 2.6525 8.25276C1.99375 8.23811 1.3475 8.01393 0.8 7.66082C0.8 7.67547 0.8 7.69452 0.8 7.71356C0.8 10.0491 2.22125 11.989 4.085 12.4359C3.75125 12.5429 3.3875 12.5942 3.01 12.5942C2.7475 12.5942 2.4825 12.5766 2.23375 12.5121C2.765 14.4154 4.2725 15.8147 6.065 15.8601C4.67 17.1392 2.89875 17.9099 0.98125 17.9099C0.645 17.9099 0.3225 17.8923 0 17.844C1.81625 19.2169 3.96875 20.0007 6.29 20.0007C13.835 20.0007 17.96 12.6747 17.96 6.32455C17.96 6.1121 17.9538 5.90697 17.945 5.70331C18.7588 5.02639 19.4425 4.18096 20 3.20807Z" fill="#FAFAFA"/>
</g>
<defs>
<clipPath id="clip0">
<rect width="20" height="20" fill="white"/>
</clipPath>
</defs>
</svg>
