<svg width="102" height="17" viewBox="0 0 102 17" fill="none" xmlns="http://www.w3.org/2000/svg">
<path d="M5.91797 8.23633L9.29688 1.72266H11.8359L7.08008 10.4629V16H4.73633V10.541L0 1.72266H2.53906L5.91797 8.23633ZM21.7969 16H13.7207V1.72266H21.7969V3.69531H16.0547V7.58203H21.4355V9.53516H16.0547V14.0176H21.7969V16ZM31.0645 16L26.9238 4.07617H26.8457C26.9564 5.84701 27.0117 7.50716 27.0117 9.05664V16H24.8926V1.72266H28.1836L32.1484 13.0801H32.207L36.2891 1.72266H39.5898V16H37.3438V8.93945C37.3438 8.22982 37.36 7.30534 37.3926 6.16602C37.4316 5.02669 37.4642 4.33659 37.4902 4.0957H37.4121L33.125 16H31.0645ZM42.7637 14.7793C42.7637 14.304 42.8874 13.9395 43.1348 13.6855C43.3822 13.4316 43.7402 13.3047 44.209 13.3047C44.6842 13.3047 45.0456 13.4382 45.293 13.7051C45.5404 13.9655 45.6641 14.3236 45.6641 14.7793C45.6641 15.2415 45.5371 15.6094 45.2832 15.8828C45.0358 16.1497 44.6777 16.2832 44.209 16.2832C43.7402 16.2832 43.3822 16.1497 43.1348 15.8828C42.8874 15.6159 42.7637 15.248 42.7637 14.7793ZM52.6367 14.3398C53.1966 14.3398 53.7565 14.252 54.3164 14.0762V15.8047C54.0625 15.9154 53.7337 16.0065 53.3301 16.0781C52.9329 16.1562 52.5195 16.1953 52.0898 16.1953C49.9154 16.1953 48.8281 15.0495 48.8281 12.7578V6.9375H47.3535V5.92188L48.9355 5.08203L49.7168 2.79688H51.1328V5.19922H54.209V6.9375H51.1328V12.7188C51.1328 13.2721 51.2695 13.6823 51.543 13.9492C51.8229 14.2096 52.1875 14.3398 52.6367 14.3398ZM61.9629 5.00391C62.4251 5.00391 62.806 5.03646 63.1055 5.10156L62.8809 7.24023C62.5553 7.16211 62.2168 7.12305 61.8652 7.12305C60.9473 7.12305 60.2018 7.42253 59.6289 8.02148C59.0625 8.62044 58.7793 9.39844 58.7793 10.3555V16H56.4844V5.19922H58.2812L58.584 7.10352H58.7012C59.0592 6.45898 59.5247 5.94792 60.0977 5.57031C60.6771 5.19271 61.2988 5.00391 61.9629 5.00391ZM71.875 16L71.416 14.4961H71.3379C70.8171 15.1536 70.293 15.6029 69.7656 15.8438C69.2383 16.0781 68.5612 16.1953 67.7344 16.1953C66.6732 16.1953 65.8431 15.9089 65.2441 15.3359C64.6517 14.763 64.3555 13.9525 64.3555 12.9043C64.3555 11.791 64.7689 10.9512 65.5957 10.3848C66.4225 9.81836 67.6823 9.50911 69.375 9.45703L71.2402 9.39844V8.82227C71.2402 8.13216 71.0775 7.61784 70.752 7.2793C70.4329 6.93424 69.9349 6.76172 69.2578 6.76172C68.7044 6.76172 68.1738 6.8431 67.666 7.00586C67.1582 7.16862 66.6699 7.36068 66.2012 7.58203L65.459 5.94141C66.0449 5.63542 66.6862 5.4043 67.3828 5.24805C68.0794 5.08529 68.737 5.00391 69.3555 5.00391C70.7292 5.00391 71.7643 5.30339 72.4609 5.90234C73.1641 6.5013 73.5156 7.44206 73.5156 8.72461V16H71.875ZM68.457 14.4375C69.2904 14.4375 69.9577 14.2064 70.459 13.7441C70.9668 13.2754 71.2207 12.6211 71.2207 11.7812V10.8438L69.834 10.9023C68.7533 10.9414 67.9655 11.1237 67.4707 11.4492C66.9824 11.7682 66.7383 12.2598 66.7383 12.9238C66.7383 13.4056 66.8815 13.7799 67.168 14.0469C67.4544 14.3073 67.8841 14.4375 68.457 14.4375ZM79.1797 16L75.0781 5.19922H77.5L79.6973 11.4785C80.0749 12.5332 80.3027 13.3861 80.3809 14.0371H80.459C80.5176 13.5684 80.7454 12.7155 81.1426 11.4785L83.3398 5.19922H85.7812L81.6602 16H79.1797ZM92.1387 16.1953C90.459 16.1953 89.1439 15.707 88.1934 14.7305C87.2493 13.7474 86.7773 12.3965 86.7773 10.6777C86.7773 8.91341 87.2168 7.52669 88.0957 6.51758C88.9746 5.50846 90.1823 5.00391 91.7188 5.00391C93.1445 5.00391 94.2708 5.43685 95.0977 6.30273C95.9245 7.16862 96.3379 8.36003 96.3379 9.87695V11.1172H89.1406C89.1732 12.1654 89.4564 12.9727 89.9902 13.5391C90.5241 14.099 91.276 14.3789 92.2461 14.3789C92.8841 14.3789 93.4766 14.3203 94.0234 14.2031C94.5768 14.0794 95.1693 13.8776 95.8008 13.5977V15.4629C95.2409 15.7298 94.6745 15.9186 94.1016 16.0293C93.5286 16.14 92.8743 16.1953 92.1387 16.1953ZM91.7188 6.74219C90.9896 6.74219 90.4036 6.97331 89.9609 7.43555C89.5247 7.89779 89.2643 8.57161 89.1797 9.45703H94.082C94.069 8.5651 93.8542 7.89128 93.4375 7.43555C93.0208 6.97331 92.4479 6.74219 91.7188 6.74219ZM101.24 16H98.9453V0.804688H101.24V16Z" fill="white"/>
</svg>
